<svg width="18" height="19" fill="none" xmlns="http://www.w3.org/2000/svg"><path d="M.603 4.302a.768.768 0 00-.012.114v.781c.001.322.201.61.503.723v1.15a.723.723 0 00.689.72v6.642a.723.723 0 00-.689.72v1.146a.783.783 0 00-.503.73v.764c0 .142.116.258.259.258h17.412a.258.258 0 00.258-.258v-.765c0-.323-.2-.613-.503-.73v-1.152a.723.723 0 00-.688-.72V7.79a.723.723 0 00.688-.72V5.92a.775.775 0 00.503-.723v-.776a.749.749 0 00-.012-.113.257.257 0 00.208-.47L9.674-.915a.258.258 0 00-.24 0L.391 3.832a.258.258 0 00.211.47zM1.61 6.368V5.97h2.978v.394l-2.978.004zM8.24 7.79v6.64a.723.723 0 00-.688.72v1.098H5.101V15.15a.723.723 0 00-.689-.72V7.79a.723.723 0 00.689-.72v-1.1h2.448v1.1c0 .385.303.702.688.72l.004.002zm-.172-1.423V5.97h2.978v.394l-2.978.004zm6.63 1.423v6.64a.723.723 0 00-.688.72v1.098h-2.451V15.15a.723.723 0 00-.688-.72V7.79a.723.723 0 00.688-.72v-1.1h2.448v1.1c0 .385.303.702.688.72l.004.002zm-.171-1.423V5.97h2.977v.394l-2.978.004zm2.977 9.487v.394h-2.981v-.394h2.981zm-6.458 0v.394H8.065v-.394h2.981zm-2.55-8.577h-.224a.206.206 0 01-.207-.206v-.188h2.978v.188a.207.207 0 01-.207.206h-2.34zm1.86.517v6.633H8.753V7.795h1.603zm-1.86 7.15h2.34c.114 0 .207.092.207.206v.188H8.065v-.188c0-.114.092-.206.207-.206h.223zm-3.911.91v.394H1.607v-.394h2.978zM1.607 7.077v-.193h2.978v.188a.206.206 0 01-.207.206h-2.57a.206.206 0 01-.201-.208v.007zm2.29.723v6.628H2.294V7.795l1.601.005zm-2.29 7.356c0-.114.092-.206.206-.206h2.565c.114 0 .207.092.207.207v.187H1.607v-.188zm16.396 1.882v.506H1.104v-.506c0-.148.12-.267.267-.267h16.366c.145 0 .264.116.266.261v.006zm-.502-1.882v.188h-2.978v-.188c0-.114.092-.206.207-.206h2.57c.11.003.198.091.2.201v.005zm-2.29-.723V7.796h1.603v6.633l-1.603.005zm2.29-7.356a.206.206 0 01-.207.207h-2.563a.206.206 0 01-.206-.207v-.193h2.977l-.001.193zM9.554-.398l7.688 4.041H1.865L9.554-.398zm-8.45 4.82c0-.143.116-.259.258-.259h16.383c.143 0 .258.116.258.258v.782a.258.258 0 01-.258.258H1.362a.258.258 0 01-.258-.258V4.42z" fill="#fff"/></svg>