<svg width="34" height="34" fill="none" xmlns="http://www.w3.org/2000/svg"><path d="M33.512 6.35L17.199.161a.558.558 0 00-.398 0L.488 6.349a.563.563 0 00-.363.526v20.25a.563.563 0 00.361.525L16.8 33.917a.563.563 0 00.4 0l16.313-6.21a.562.562 0 00.363-.526V6.875a.562.562 0 00-.363-.526zM17 1.288l14.727 5.586L17 12.461l-4.474-1.697 7.002-2.651a.562.562 0 000-1.052l-4.196-1.592a.563.563 0 00-.4 0L6.748 8.572 2.273 6.875 17 1.289zm-9.563 8.748l2.813 1.069v8.401L7.437 18.43v-8.393zm.896-.864l6.8-2.58 2.609.99-6.802 2.58-2.607-.99zM1.25 7.69l5.063 1.92v9.207a.562.562 0 00.361.525l3.938 1.508a.563.563 0 00.763-.526V11.53l5.063 1.92v19.122L1.25 26.74V7.69zm16.313 24.885V13.45L32.75 7.69v19.104l-15.188 5.781z" fill="#337D5A"/><path d="M22.987 27.136l-3.383 1.287a.563.563 0 10.4 1.052l3.383-1.288a.563.563 0 10-.4-1.051zm3.372-1.284l-1.133.431a.562.562 0 10.4 1.051l1.133-.43a.563.563 0 10-.4-1.052zm-3.372-.966l-3.383 1.287a.563.563 0 10.4 1.052l3.383-1.288a.563.563 0 10-.4-1.051zm3.372-1.284l-1.133.431a.562.562 0 10.4 1.051l1.133-.43a.563.563 0 10-.4-1.052zm-3.372-.966l-3.383 1.287a.563.563 0 10.4 1.052l3.383-1.288a.563.563 0 10-.4-1.051zm3.372-1.284l-1.133.431a.562.562 0 10.4 1.051l1.133-.43a.563.563 0 10-.4-1.052z" fill="#337D5A"/></svg>