<svg width="22" height="16" fill="none" xmlns="http://www.w3.org/2000/svg"><path d="M15.813 9.719v-8.25C15.813.9 15.35.437 14.78.437H1.031A1.034 1.034 0 000 1.47v8.25c0 .568.463 1.031 1.031 1.031h13.75c.569 0 1.031-.463 1.031-1.031zm-15.126 0v-8.25c0-.19.155-.344.344-.344h13.75c.19 0 .344.154.344.344v8.25c0 .19-.154.344-.344.344H1.031a.344.344 0 01-.343-.344z" fill="#fff"/><path d="M20.969 5.25h-4.125a.344.344 0 100 .688h4.125c.19 0 .343.154.343.343V8h-4.468a.344.344 0 100 .688h4.468v5.843c0 .19-.154.344-.343.344H7.219a.344.344 0 01-.344-.344v-2.75a.344.344 0 00-.688 0v2.75c0 .569.463 1.031 1.032 1.031h13.75c.568 0 1.031-.462 1.031-1.03v-8.25c0-.57-.463-1.032-1.031-1.032zM7.219 7.656H5.5a.344.344 0 000 .688h1.719a.344.344 0 000-.688zm-3.094 0H2.406a.344.344 0 000 .688h1.719a.344.344 0 000-.688z" fill="#fff"/><path d="M13.406 7.656h-1.719a.344.344 0 000 .688h1.72a.344.344 0 100-.688zm-3.093 0h-1.72a.344.344 0 000 .688h1.72a.344.344 0 000-.688zm-6.532-5.5H2.75c-.569 0-1.031.463-1.031 1.031v.344c0 .569.462 1.031 1.031 1.031h1.031c.569 0 1.031-.462 1.031-1.03v-.345c0-.568-.462-1.03-1.03-1.03zm.344 1.375c0 .19-.154.344-.344.344H2.75a.344.344 0 01-.344-.344v-.344c0-.189.154-.343.344-.343h1.031c.19 0 .344.154.344.344v.343zm8.594-1.375c-.41 0-.78.181-1.031.467a1.372 1.372 0 00-1.032-.467c-.758 0-1.375.617-1.375 1.375s.617 1.375 1.375 1.375c.41 0 .78-.18 1.031-.467a1.377 1.377 0 002.406-.908c0-.758-.616-1.375-1.374-1.375zM10.656 4.22a.688.688 0 11.002-1.377.688.688 0 01-.002 1.377zm2.063 0a.688.688 0 11.001-1.377.688.688 0 01-.001 1.377zm4.125 3.093h3.781a.344.344 0 000-.688h-3.781a.344.344 0 100 .688zm2.75 4.125h-6.532a.344.344 0 000 .687h6.532a.344.344 0 000-.688zm0 1.375h-4.125a.344.344 0 100 .687h4.125a.344.344 0 000-.688z" fill="#fff"/></svg>