<svg width="18" height="20" fill="none" xmlns="http://www.w3.org/2000/svg"><path d="M17.183 10.084V7.273c0-.953-.666-1.728-1.507-1.804L13.327.91a1.652 1.652 0 00-.99-.847 1.469 1.469 0 00-1.231.183l-8.054 5.21H1.637c-.902 0-1.636.815-1.636 1.818v10.909C.001 19.185.735 20 1.637 20h13.91c.902 0 1.636-.815 1.636-1.818V15.37c.475-.188.818-.688.818-1.28v-2.727c0-.592-.343-1.092-.818-1.28zM11.518 1.03a.723.723 0 01.607-.091.82.82 0 01.492.422l.797 1.547a2.57 2.57 0 01-1.14.273c-.88 0-1.684-.443-2.224-1.202l1.468-.95zm-2.18 1.41c.695 1.04 1.763 1.651 2.936 1.651.53 0 1.057-.139 1.546-.395l.906 1.759H4.678l4.66-3.015zm7.026 15.742c0 .501-.367.909-.818.909H1.637c-.45 0-.818-.408-.818-.91V7.274c0-.501.367-.91.818-.91h13.91c.45 0 .817.409.817.91V10H13.91c-1.354 0-2.455 1.223-2.455 2.727 0 1.504 1.101 2.728 2.455 2.728h2.454v2.727zm.819-4.091c0 .25-.184.455-.41.455H13.91c-.903 0-1.636-.816-1.636-1.819 0-1.002.733-1.818 1.636-1.818h2.863c.226 0 .41.204.41.455v2.727z" fill="#fff"/><path d="M13.909 11.818c-.451 0-.818.408-.818.91 0 .5.367.908.818.908.451 0 .818-.407.818-.909 0-.5-.367-.909-.818-.909z" fill="#fff"/></svg>