<svg width="45" height="45" fill="none" xmlns="http://www.w3.org/2000/svg"><g clip-path="url(#clip0_303_106)" fill="#C4C4C4"><path d="M10.5 30.75a2.25 2.25 0 100 4.5 2.25 2.25 0 000-4.5zm0 3a.75.75 0 110-1.5.75.75 0 010 1.5zm24-3a2.25 2.25 0 100 4.5 2.25 2.25 0 000-4.5zm0 3a.75.75 0 110-1.5.75.75 0 010 1.5z"/><path d="M44.428 20.074l-5.166-5.818a2.25 2.25 0 00-1.687-.756H30.75V9a2.252 2.252 0 00-2.25-2.25H2.25A2.252 2.252 0 000 9v19.5a.75.75 0 00.75.75h.75v2.25a2.252 2.252 0 002.25 2.25h1.56a5.243 5.243 0 0010.38 0h13.62a5.243 5.243 0 0010.38 0h3.06A2.252 2.252 0 0045 31.5v-9.93c0-.552-.204-1.084-.572-1.496zM1.5 27.75V9a.75.75 0 01.75-.75H28.5a.75.75 0 01.75.75v18.75H1.5zm3.81 4.5H3.75A.75.75 0 013 31.5v-2.25h3.833a5.236 5.236 0 00-1.523 3zm5.19 4.5a3.75 3.75 0 110-7.5 3.75 3.75 0 010 7.5zm7.5-4.5h-2.31a5.236 5.236 0 00-1.523-3H18v3zm6.75 0H19.5v-3h5.25v3zm4.56 0h-3.06v-3h4.583a5.237 5.237 0 00-1.523 3zm5.19 4.5a3.75 3.75 0 110-7.5 3.75 3.75 0 010 7.5zm9-5.25a.75.75 0 01-.75.75h-3.06a5.254 5.254 0 00-5.19-4.5h-3.75V15h3v7.5A2.252 2.252 0 0036 24.75h7.5v6.75zm0-8.25H36a.75.75 0 01-.75-.75V15h2.325c.215-.001.42.09.564.25l5.169 5.821a.752.752 0 01.192.499v1.68z"/><g clip-path="url(#clip1_303_106)"><path d="M19.623 12.857a91.945 91.945 0 01-1.041-1.319.292.292 0 00-.287-.107s-1.262.25-1.65.311c-3.242.516-5.34 2.163-6.415 5.034-1.499 4.003 1.47 7.09 3.316 7.78 1.846.69 6.111.313 7.61-3.69 1.07-2.858.568-5.478-1.533-8.009zM13.751 24.01c-1.661-.621-4.33-3.407-2.975-7.028.995-2.658 2.944-4.183 5.961-4.663.303-.048 1.13-.209 1.495-.28.228.293.747.956.942 1.192 1.957 2.355 2.426 4.786 1.436 7.432-1.384 3.695-5.412 3.89-6.86 3.348z"/><path d="M20.37 19.636a2.03 2.03 0 00-.457-2.137 2.044 2.044 0 00-1.116-2.812 1.751 1.751 0 00-.285-.08c-.111-.02-.237-.095-.263-.238-.09-.497-.227-1.08-.227-1.08-.044-.19-.296-.284-.455-.17-.019.014-.47.34-.844.668-.116.102-.268.073-.372.013a1.839 1.839 0 00-.286-.136 2.044 2.044 0 00-2.688 1.388 2.03 2.03 0 00-1.748 1.312c-.19.508-.165 1.07.065 1.566a1.869 1.869 0 00-.132.277 2.037 2.037 0 00.486 2.167 2.033 2.033 0 001.292 2.236c.283.106.582.145.89.116.215.224.466.392.749.498a2.034 2.034 0 002.442-.839 2.037 2.037 0 001.79-1.315c.034-.092.062-.19.082-.295.5-.223.887-.63 1.077-1.14zm-6.23 2.5a1.41 1.41 0 01-.596-.072c-.693-.26-1.077-1-.894-1.723.008-.029 0-.057-.002-.086.015-.022.032-.042.042-.068.058-.156.141-.3.247-.425a.292.292 0 10-.448-.375 2.055 2.055 0 00-.224.337 1.448 1.448 0 01-.157-1.312c.037-.098.089-.195.163-.304a.291.291 0 00.011-.308 1.452 1.452 0 01-.107-1.231 1.444 1.444 0 011.135-.918c.03.798.53 1.54 1.324 1.838a.292.292 0 10.204-.547 1.46 1.46 0 011.023-2.731c.069.026.134.057.195.093.346.202.754.174 1.043-.073l-2.959 7.905zm4.795-1.846a.29.29 0 00-.193.24 1.472 1.472 0 01-.078.336 1.448 1.448 0 01-.978.886 2.044 2.044 0 00-.676-2.003.291.291 0 10-.376.447c.471.396.642 1.05.438 1.6l-.084.17a1.452 1.452 0 01-1.805.711 1.41 1.41 0 01-.496-.337l2.973-7.943.015.077a.894.894 0 00.727.706c.064.012.127.03.19.053a1.46 1.46 0 01.855 1.877 1.446 1.446 0 01-.145.281 1.449 1.449 0 01-.551.503.292.292 0 10.267.519c.21-.108.393-.253.551-.421.335.397.44.943.255 1.44-.15.4-.474.713-.89.858z"/></g></g><defs><clipPath id="clip0_303_106"><path fill="#fff" d="M0 0h45v45H0z"/></clipPath><clipPath id="clip1_303_106"><path fill="#fff" transform="rotate(20.521 -18.884 37.359)" d="M0 0h14v14H0z"/></clipPath></defs></svg>