<svg width="16" height="18" fill="none" xmlns="http://www.w3.org/2000/svg"><path d="M15.923 16.107c-.13-.445-2.25-8.38-2.538-9.46-.287-1.08-1.038-1.369-1.884-1.369H8.743v-.997C13.872 3.804 15.24 0 15.24 0H.42s1.147 4.018 6.63 4.303v.975H4.5c-.846 0-1.596.288-1.884 1.368-.288 1.08-2.408 9.015-2.538 9.46-.163.557-.112 1.284 1.021 1.284h.81V18h12.045v-.61h.947c1.135 0 1.186-.727 1.023-1.284zM8 6.309A5.025 5.025 0 118 16.36 5.025 5.025 0 118 6.309z" fill="#337D5A"/><path d="M5.115 9.123l-.516-.368-.153.214.509.36c.047-.072.105-.137.16-.206zm1.418-1.127l-.281-.568-.236.117.287.577c.077-.041.15-.09.23-.126zM4.35 11.335c0-.03.008-.057.01-.086h-.64v.262h.648c-.002-.06-.018-.116-.018-.176zm7.594-1.925l-.125-.228-.658.36c.042.074.087.151.125.229l.659-.36zm-1.526-1.69l-.225-.134-.364.606c.075.045.155.08.23.13l.359-.601zm-2.221-.015V7.03h-.263v.66c.022 0 .044-.006.066-.006.068 0 .13.016.197.02zm1.919 7.511l-.35-.706c-.076.043-.152.09-.23.126l.344.697.236-.117zm1.57-1.425l-.64-.454c-.046.074-.106.139-.158.207l.645.46.153-.213zm-.036-2.456c0 .06-.014.116-.016.175h.78v-.262h-.771c0 .03.008.057.008.087zm-3.716 3.643v.748h.263v-.762c-.067.004-.13.02-.197.02-.022 0-.044-.006-.066-.006zM4.781 13.02l-.595.324.126.23.593-.323c-.045-.076-.083-.153-.124-.231zm1.531 1.532c-.079-.041-.157-.08-.232-.126l-.366.61.225.135.373-.619zm.149-.662l.202.114 1.265-2.115c.051.011.1.031.154.031a.803.803 0 10-.803-.803c0 .254.125.47.309.619L6.46 13.89zm1.621-3.003a.23.23 0 11.002.46.23.23 0 01-.002-.46z" fill="#337D5A"/></svg>