<svg width="43" height="43" fill="none" xmlns="http://www.w3.org/2000/svg"><g clip-path="url(#clip0_292:5)" fill="#337D5A"><path d="M17.916 30.47h1.433v1.433h-1.433V30.47zm1.434 1.433h1.432v1.433H19.35v-1.433zm12.9-1.433h1.433v1.433h-1.434V30.47zm-1.434 1.433h1.433v1.433h-1.433v-1.433zm-22.216 0h1.432v1.433H8.6v-1.433zm1.433-1.433h1.433v1.433h-1.433V30.47zm4.3-8.6h1.433v1.433h-1.433v-1.434zm1.433-1.434H17.2v1.433h-1.433v-1.433zm12.184.717h1.433v1.433H27.95v-1.433zm9.316 0H38.7v1.433h-1.433v-1.433z"/><path d="M40.133 32.813V17.569a10.05 10.05 0 00-8.616-9.924c.005-.089.015-.175.015-.264V6.103a.717.717 0 00-.716-.717h-1.278a5.173 5.173 0 00-4.632 2.884 4.986 4.986 0 00-4.672-2.135 7.878 7.878 0 00-6.617-3.615v1.433a6.437 6.437 0 015.146 2.58 4.992 4.992 0 00-2.701 6.267L3.33 17.616a.708.708 0 00-.452.67h-.011v14.527C.947 33.564 0 34.44 0 35.486c0 3.968 14.064 5.017 21.5 5.017S43 39.455 43 35.486c0-1.046-.947-1.922-2.867-2.673zM4.3 25.073c.481-.001.943.189 1.284.528a3.253 3.253 0 004.597 0 1.82 1.82 0 012.57 0 3.253 3.253 0 004.597 0 1.82 1.82 0 012.57 0 3.253 3.253 0 004.596 0 1.82 1.82 0 012.57 0 3.25 3.25 0 004.597 0 1.82 1.82 0 012.57 0 3.225 3.225 0 004.45.121v1.9a3.07 3.07 0 00-.966.649 1.679 1.679 0 01-2.371 0l-.2-.2a3.116 3.116 0 00-4.398 0l-.198.198a1.68 1.68 0 01-2.37 0l-.2-.2a3.116 3.116 0 00-4.399 0l-.198.199a1.68 1.68 0 01-2.37 0l-.2-.2a3.115 3.115 0 00-4.399 0l-.197.199a1.679 1.679 0 01-2.371 0l-.2-.2a3.116 3.116 0 00-4.398 0l-.198.198a1.68 1.68 0 01-2.37 0l-.2-.2a3.094 3.094 0 00-2.198-.9v-2.092zm34.4-1.099c-.32.156-.613.363-.866.614a1.82 1.82 0 01-2.57 0 3.25 3.25 0 00-4.595-.002l-.001.002a1.82 1.82 0 01-2.57 0 3.253 3.253 0 00-4.597 0 1.82 1.82 0 01-2.57 0 3.253 3.253 0 00-4.597 0 1.82 1.82 0 01-2.57 0 3.253 3.253 0 00-4.596 0 1.82 1.82 0 01-2.57 0 3.248 3.248 0 00-2.298-.95v-4.635h3.287l2.032 2.032a2.616 2.616 0 003.696 0l2.032-2.032h2.99l2.032 2.032a2.616 2.616 0 003.695 0l2.033-2.032h2.99l2.032 2.032a2.616 2.616 0 003.696 0l2.032-2.032H38.7v4.971zM4.3 28.6a1.67 1.67 0 011.184.485l.199.2a3.116 3.116 0 004.4 0l.197-.198a1.68 1.68 0 012.37 0l.2.2a3.115 3.115 0 004.399 0l.197-.199a1.68 1.68 0 012.371 0l.2.2a3.115 3.115 0 004.398 0l.198-.198a1.68 1.68 0 012.37 0l.2.2a3.116 3.116 0 004.4 0l.197-.2a1.68 1.68 0 012.37 0l.2.2a3.104 3.104 0 004.35.034v5.447H4.3V28.6zm27.102-17.784l1.021 1.021-1.021 1.021a2.857 2.857 0 01-4.038 0l-1.022-1.02 1.022-1.022a2.857 2.857 0 014.038 0zM29.538 6.82h.562v.561c0 .414-.07.825-.205 1.215a4.264 4.264 0 00-3.544 1.206l-.528.527a3.732 3.732 0 013.715-3.51zm-10.034.963a6.41 6.41 0 01.563 2.62v.716H21.5v-.716a7.832 7.832 0 00-.541-2.849 3.576 3.576 0 11-1.454.229zm-2.766 6.292a5.005 5.005 0 008.704-1.11l.907.906a4.293 4.293 0 006.064 0l1.53-1.528a.717.717 0 000-1.014l-1.528-1.527a4.215 4.215 0 00-1.016-.73A8.618 8.618 0 0138.7 17.57h-2.15a.717.717 0 00-.507.21l-2.242 2.242a1.18 1.18 0 01-1.668 0L29.89 17.78a.717.717 0 00-.507-.21H25.8a.717.717 0 00-.507.21l-2.242 2.242a1.18 1.18 0 01-1.668 0L19.14 17.78a.717.717 0 00-.507-.21H15.05a.717.717 0 00-.507.21l-2.242 2.242a1.18 1.18 0 01-1.668 0L8.39 17.78a.717.717 0 00-.507-.21h-.38l9.235-3.495zM21.5 39.07c-12.984 0-20.067-2.365-20.067-3.584 0-.185.335-.615 1.434-1.12v1.12c0 .396.32.717.716.717h35.834a.717.717 0 00.716-.717v-1.12c1.1.503 1.434.932 1.434 1.12 0 1.219-7.083 3.584-20.067 3.584z"/></g><defs><clipPath id="clip0_292:5"><path fill="#fff" d="M0 0h43v43H0z"/></clipPath></defs></svg>