<svg width="49" height="49" fill="none" xmlns="http://www.w3.org/2000/svg"><path d="M2.297 13.781h3.062a.766.766 0 01.766.766v16.078h6.125a1.531 1.531 0 011.531 1.531v1.532a.766.766 0 01.766.765v2.297a.766.766 0 01-.766.766h-.765v9.187a.766.766 0 01-.766.766H9.953a.766.766 0 01-.765-.766v-9.187h-3.83v9.187a.766.766 0 01-.765.766H2.297a.766.766 0 01-.766-.766V14.547a.766.766 0 01.766-.766zm10.719 22.203v-.765H3.062v.765h9.954zm-.766-3.828H6.125v.766H4.594v-17.61H3.062v18.376h9.188v-1.532zm-1.531 13.782h.765v-8.422h-.765v8.422zm-7.656 0h.765v-8.422h-.765v8.422z" fill="#C4C4C4"/><path d="M15.313 29.86a1.532 1.532 0 01-1.532-1.532v-.765h-.765a.766.766 0 01-.766-.766v-1.531a2.297 2.297 0 012.297-2.297h1.824a3.044 3.044 0 01-1.058-2.297H13.78V19.14h1.531v-.766a.766.766 0 01.766-.766h4.594a.766.766 0 01.765.766v2.297a3.043 3.043 0 01-1.058 2.297h8.242a3.044 3.044 0 01-1.058-2.297v-2.297a.766.766 0 01.765-.766h4.594a.766.766 0 01.766.766v.766h1.53v1.53h-1.53a3.043 3.043 0 01-1.059 2.298h1.824a2.297 2.297 0 012.297 2.297v1.53a.766.766 0 01-.766.767h-.765v.765a1.532 1.532 0 01-1.532 1.531h-6.89v13.016h.765a.766.766 0 01.766.766v2.297h3.063v1.53H17.609v-1.53h3.063V43.64a.766.766 0 01.765-.766h.766V29.859h-6.89zm4.593-10.72h-3.062v1.532a1.531 1.531 0 103.062 0V19.14zm12.25 0h-3.062v1.532a1.531 1.531 0 103.062 0V19.14zm3.063 6.126a.766.766 0 00-.766-.766H14.547a.766.766 0 00-.766.766v.765H35.22v-.765zm-1.532 2.297H15.314v.765h18.374v-.765zm-6.89 18.375v-1.532h-4.594v1.532h4.594zm-3.063-3.063h1.532V29.859h-1.532v13.016z" fill="#C4C4C4"/><path d="M35.219 33.688v-1.532a1.531 1.531 0 011.531-1.531h6.125V14.547a.766.766 0 01.766-.766h3.062a.766.766 0 01.766.766v32.156a.766.766 0 01-.766.766h-2.297a.766.766 0 01-.765-.766v-9.187h-3.828v9.187a.766.766 0 01-.766.766H36.75a.766.766 0 01-.766-.766v-9.187h-.765a.766.766 0 01-.766-.766v-2.297a.766.766 0 01.766-.766zm10.718-18.376h-1.53v17.61h-1.532v-.766H36.75v1.532h9.188V15.311zm-.765 30.626h.766v-8.422h-.766v8.422zm-7.656 0h.765v-8.422h-.765v8.422zm-1.532-9.954h9.953v-.765h-9.953v.765z" fill="#C4C4C4"/></svg>