<svg width="37" height="37" fill="none" xmlns="http://www.w3.org/2000/svg"><g clip-path="url(#clip0_286:9)" fill="#C4C4C4"><path d="M17.267 10.483a1.83 1.83 0 00-.113-.616h2.693a1.827 1.827 0 00-.113.616 1.85 1.85 0 003.7 0 1.83 1.83 0 00-.114-.616h.73a.617.617 0 00.617-.555l.617-6.167a.618.618 0 00-.617-.678H12.604L12.329.529a.617.617 0 00-.61-.529h-1.85v1.233h1.314l1.158 8.105a.617.617 0 00.61.529h.73a1.827 1.827 0 00-.113.616 1.85 1.85 0 003.7 0zm4.934 0a.617.617 0 11-1.234 0 .617.617 0 011.234 0zM12.78 3.7h11.208l-.493 4.933h-10.01L12.78 3.7zm2.636 7.4a.617.617 0 110-1.233.617.617 0 010 1.233z"/><path d="M36.533 17.285l-9.4-2.35V12.95a.617.617 0 00-.616-.617H10.483a.617.617 0 00-.616.617v1.985l-9.4 2.35a.617.617 0 00-.467.598v18.5c0 .34.276.617.617.617h35.766c.34 0 .617-.276.617-.617v-18.5a.617.617 0 00-.467-.598zm-35.3 1.08l8.634-2.159v19.56H1.233v-17.4zm9.867-4.798h14.8v22.2h-3.083v-5.55a.617.617 0 00-.617-.617h-7.4a.617.617 0 00-.617.617v5.55H11.1v-22.2zm4.317 17.266h2.466v4.934h-2.466v-4.934zm3.7 4.934v-4.934h2.466v4.934h-2.466zm16.65 0h-8.634v-19.56l8.634 2.158v17.402z"/><path d="M17.267 28.367c.34 0 .617-.277.617-.617v-2.467a.617.617 0 00-.617-.616H12.95a.617.617 0 00-.616.616v2.467c0 .34.276.617.616.617h4.317zm-3.7-2.467h3.083v1.233h-3.083V25.9zm6.167 2.467h4.316a.617.617 0 00.617-.617v-2.467a.617.617 0 00-.617-.616h-4.316a.617.617 0 00-.617.616v2.467c0 .34.276.617.617.617zm.616-2.467h3.084v1.233H20.35V25.9zm-7.4-2.467h4.317c.34 0 .617-.276.617-.616V20.35a.617.617 0 00-.617-.617H12.95a.617.617 0 00-.616.617v2.467c0 .34.276.616.616.616zm.617-2.466h3.083V22.2h-3.083v-1.233zm6.167 2.466h4.316a.616.616 0 00.617-.616V20.35a.617.617 0 00-.617-.617h-4.316a.617.617 0 00-.617.617v2.467c0 .34.276.616.617.616zm.616-2.466h3.084V22.2H20.35v-1.233zm-7.4-2.467h4.317c.34 0 .617-.276.617-.617v-2.466a.617.617 0 00-.617-.617H12.95a.617.617 0 00-.616.617v2.466c0 .34.276.617.616.617zm.617-2.467h3.083v1.234h-3.083v-1.234zm6.167 2.467h4.316a.617.617 0 00.617-.617v-2.466a.617.617 0 00-.617-.617h-4.316a.617.617 0 00-.617.617v2.466c0 .34.276.617.617.617zm.616-2.467h3.084v1.234H20.35v-1.234zm8.634 12.334h4.933c.34 0 .617-.277.617-.617v-2.467a.617.617 0 00-.617-.616h-4.933a.617.617 0 00-.617.616v2.467c0 .34.276.617.617.617zM29.6 25.9h3.7v1.233h-3.7V25.9zm-.616-2.467h4.933c.34 0 .617-.276.617-.616V20.35a.617.617 0 00-.617-.617h-4.933a.617.617 0 00-.617.617v2.467c0 .34.276.616.617.616zm.616-2.466h3.7V22.2h-3.7v-1.233zm-.616 13.566h4.933c.34 0 .617-.276.617-.616v-3.7a.617.617 0 00-.617-.617h-4.933a.617.617 0 00-.617.617v3.7c0 .34.276.616.617.616zm.616-3.7h3.7V33.3h-3.7v-2.467zM8.016 24.667H3.083a.617.617 0 00-.617.616v2.467c0 .34.276.617.617.617h4.933c.34 0 .617-.277.617-.617v-2.467a.617.617 0 00-.617-.616zM7.4 27.133H3.7V25.9h3.7v1.233zm.616-7.4H3.083a.617.617 0 00-.617.617v2.467c0 .34.276.616.617.616h4.933c.34 0 .617-.276.617-.616V20.35a.617.617 0 00-.617-.617zM7.4 22.2H3.7v-1.233h3.7V22.2zm.616 7.4H3.083a.617.617 0 00-.617.617v3.7c0 .34.276.616.617.616h4.933c.34 0 .617-.276.617-.616v-3.7a.617.617 0 00-.617-.617zM7.4 33.3H3.7v-2.467h3.7V33.3z"/></g><defs><clipPath id="clip0_286:9"><path fill="#fff" d="M0 0h37v37H0z"/></clipPath></defs></svg>